<svg id="Layer_1" data-name="Layer 1" xmlns="http://www.w3.org/2000/svg" viewBox="0 0 67.4 332.86">
  <title>aside_image</title>
  <g>
    <path d="M65.77,31.58a.94.94,0,0,1-.94-.94V1.87H58.91v27a.93.93,0,0,1-.93.93H39.39a.94.94,0,0,1-.94-.93v-27H32.53V30.64a.94.94,0,1,1-1.87,0V.93A.94.94,0,0,1,31.6,0h7.79a.93.93,0,0,1,.93.93V28H57V.93A.94.94,0,0,1,58,0h7.79a.93.93,0,0,1,.93.93V30.64a.94.94,0,0,1-.93.94Z" fill="#231f20"/>
    <path d="M65.77,66.66H58a.93.93,0,0,1-.94-.93V37.61H40.32V65.73a.93.93,0,0,1-.93.93H31.6a.93.93,0,0,1-.94-.93V34.55a.94.94,0,0,1,1.87,0V64.8h5.92V36.68a.94.94,0,0,1,.94-.94H58a.94.94,0,0,1,.93.94V64.8h5.92V34.55a.94.94,0,0,1,1.87,0V65.73a.93.93,0,0,1-.93.93Z" fill="#231f20"/>
    <path d="M67.18,93.65a18.12,18.12,0,0,1-4.53,12.25c-3.3,3.65-8,5.58-13.66,5.58H19.71a.94.94,0,1,1,0-1.87H49c5.1,0,9.34-1.71,12.28-5a16.32,16.32,0,0,0,4-11A16.81,16.81,0,0,0,61.2,82.41,15.79,15.79,0,0,0,49,77.31H19.71a.94.94,0,1,1,0-1.87H49c11.94,0,18.19,9.16,18.19,18.21Z" fill="#231f20"/>
    <path d="M59.48,95.38a1.1,1.1,0,0,1,0,.18c-1,4.94-5.08,8.13-10.47,8.13H2.11v5.92H15.82a.94.94,0,1,1,0,1.87H1.18a.93.93,0,0,1-.94-.93v-7.79a.94.94,0,0,1,.94-.94H49c5.4,0,8-3.42,8.64-6.62a.93.93,0,0,1,1.85.18Z" fill="#231f20"/>
    <path d="M59.48,91.55a.92.92,0,0,1-.75.91.94.94,0,0,1-1.1-.73C57,88.53,54.4,85.1,49,85.1H1.18a.93.93,0,0,1-.94-.93V76.38a.94.94,0,0,1,.94-.94H15.82a.94.94,0,1,1,0,1.87H2.11v5.93H49c5.4,0,9.5,3.19,10.47,8.13a.55.55,0,0,1,0,.18Z" fill="#231f20"/>
    <path d="M46.88,158.57a.87.87,0,0,1-.46-.13C31.15,149.82,29.51,144.89,29,139.35v0a17.93,17.93,0,0,1,4.92-13.4A18.69,18.69,0,0,1,66,138.83a.94.94,0,0,1-.94.93H56.85a.93.93,0,0,1-.93-.9c-.17-5.06-3.56-8.45-8.43-8.45a8.83,8.83,0,0,0-6.5,2.64,7.34,7.34,0,0,0-1.92,5.71c.19,3.78,3.27,6,8.31,9.07a.93.93,0,0,1,.31,1.28.94.94,0,0,1-1.29.31c-5.4-3.34-9-5.88-9.2-10.54a9.36,9.36,0,0,1,2.42-7.1,10.72,10.72,0,0,1,7.87-3.24,10,10,0,0,1,10.23,9.35h6.4a16.82,16.82,0,0,0-28.91-10.7,16,16,0,0,0-4.4,12c.5,5,2.06,9.46,16.53,17.64a.92.92,0,0,1,.35,1.27.93.93,0,0,1-.81.48Z" fill="#231f20"/>
    <path d="M48.52,188.3a19,19,0,0,1-18.84-19.15.94.94,0,0,1,.94-.94H39a.94.94,0,0,1,.93.91,8.64,8.64,0,0,0,8.59,8.71,9,9,0,0,0,6.59-2.69,7.64,7.64,0,0,0,2-5.92c-.19-3.82-2.94-5.86-7.44-8.78a.93.93,0,1,1,1-1.57c4.86,3.15,8.06,5.56,8.29,10.23a9.56,9.56,0,0,1-2.49,7.32,10.85,10.85,0,0,1-8,3.28,10.42,10.42,0,0,1-10.4-9.62H31.58a17.12,17.12,0,0,0,16.94,16.35A16.88,16.88,0,0,0,61,181.2a16.58,16.58,0,0,0,4.55-12.42c-.5-5-2.05-9.75-15.79-17.45a.93.93,0,0,1,.91-1.63c13.16,7.37,16.11,12.52,16.74,18.92v0A18.59,18.59,0,0,1,48.52,188.3Z" fill="#231f20"/>
    <path d="M65.73,289.28H31.56a.92.92,0,0,1-.93-.93v-30.9a.93.93,0,0,1,1.86,0v30H64.8v-5.93H39.35a.93.93,0,0,1-.93-.93V259.3a.94.94,0,0,1,.93-.94h13v-.91a.94.94,0,0,1,1.87,0v1.85a.93.93,0,0,1-.93.93H40.29v19.4H65.73a.92.92,0,0,1,.93.93v7.79a.92.92,0,0,1-.93.93Z" fill="#231f20"/>
    <path d="M53.34,254.47a.93.93,0,0,1-.94-.93v-1.1h-13a.93.93,0,0,1-.93-.93V231.35a.94.94,0,0,1,.93-.94H64.8v-5.92H32.49v29a.93.93,0,0,1-1.86,0v-30a.93.93,0,0,1,.93-.93H65.73a.93.93,0,0,1,.93.93v7.8a.93.93,0,0,1-.93.93H40.29v18.29H53.34a.94.94,0,0,1,.93.94v2a.93.93,0,0,1-.93.93Z" fill="#231f20"/>
    <path d="M0,312.91v-2.06a.93.93,0,0,1,.94-.93H57V297.76a.94.94,0,0,1,.94-.94h7.79a.93.93,0,0,1,.93.94v15.15a.93.93,0,1,1-1.86,0V298.69H58.87v12.16a.93.93,0,0,1-.93.94H1.87v1.12a.94.94,0,0,1-1.87,0Z" fill="#231f20"/>
    <path d="M0,318.83v-2a.94.94,0,1,1,1.87,0v1H57.94a.93.93,0,0,1,.93.93V331H64.8V316.85a.93.93,0,1,1,1.86,0v15.08a.93.93,0,0,1-.93.93H57.94a.94.94,0,0,1-.94-.93V319.77H.94a.94.94,0,0,1-.94-.94Z" fill="#231f20"/>
    <path d="M47.84,215.3a.94.94,0,0,1-.66-.28l-18-18a.94.94,0,0,1,.66-1.6h16a.94.94,0,1,1,0,1.87H32.11L47.84,213l15.73-15.73H49.84a.94.94,0,0,1,0-1.87h16a.93.93,0,0,1,.66,1.6l-18,18a.94.94,0,0,1-.66.28Z" fill="#231f20"/>
  </g>
</svg>
